<?xml version="1.0" standalone="no"?>
<!DOCTYPE svg PUBLIC "-//W3C//DTD SVG 1.1//EN"
"http://www.w3.org/Graphics/SVG/1.1/DTD/svg11.dtd">
 
<!-- <svg xmlns="http://www.w3.org/2000/svg" version="1.1">
  <rect x="50" y="20" width="150" height="150" style="fill:blue;stroke:pink;stroke-width:5;fill-opacity:0.1;stroke-opacity:0.9"/>
</svg> -->

<svg xmlns="http://www.w3.org/2000/svg" version="1.1"  viewBox="64 64 896 896"><path d="M512 244c176.18 0 319 142.82 319 319v233a32 32 0 0 1-32 32H225a32 32 0 0 1-32-32V563c0-176.18 142.82-319 319-319zM484 68h56a8 8 0 0 1 8 8v96a8 8 0 0 1-8 8h-56a8 8 0 0 1-8-8V76a8 8 0 0 1 8-8zM177.25 191.66a8 8 0 0 1 11.32 0l67.88 67.88a8 8 0 0 1 0 11.31l-39.6 39.6a8 8 0 0 1-11.31 0l-67.88-67.88a8 8 0 0 1 0-11.31l39.6-39.6zm669.6 0l39.6 39.6a8 8 0 0 1 0 11.3l-67.88 67.9a8 8 0 0 1-11.32 0l-39.6-39.6a8 8 0 0 1 0-11.32l67.89-67.88a8 8 0 0 1 11.31 0zM192 892h640a32 32 0 0 1 32 32v24a8 8 0 0 1-8 8H168a8 8 0 0 1-8-8v-24a32 32 0 0 1 32-32zm148-317v253h64V575h-64z"/></svg>